ModelForces
version=1
nRows=4
nColumns=203
inDegrees=no

This file contains the forces exerted on a model during a simulation.

A force is a generalized force, meaning that it can be either a force (N) or a torque (Nm).

Units are S.I. units (second, meters, Newtons, ...)
Angles are in degrees.

endheader
time	glut_med1_r	glut_med2_r	glut_med3_r	glut_min1_r	glut_min2_r	glut_min3_r	semimem_r	semiten_r	bifemlh_r	bifemsh_r	sar_r	add_long_r	add_brev_r	add_mag1_r	add_mag2_r	add_mag3_r	tfl_r	pect_r	grac_r	glut_max1_r	glut_max2_r	glut_max3_r	iliacus_r	psoas_r	quad_fem_r	gem_r	peri_r	rect_fem_r	vas_med_r	vas_int_r	vas_lat_r	med_gas_r	lat_gas_r	soleus_r	tib_post_r	flex_dig_r	flex_hal_r	tib_ant_r	per_brev_r	per_long_r	per_tert_r	ext_dig_r	ext_hal_r	glut_med1_l	glut_med2_l	glut_med3_l	glut_min1_l	glut_min2_l	glut_min3_l	semimem_l	semiten_l	bifemlh_l	bifemsh_l	sar_l	add_long_l	add_brev_l	add_mag1_l	add_mag2_l	add_mag3_l	tfl_l	pect_l	grac_l	glut_max1_l	glut_max2_l	glut_max3_l	iliacus_l	psoas_l	quad_fem_l	gem_l	peri_l	rect_fem_l	vas_med_l	vas_int_l	vas_lat_l	med_gas_l	lat_gas_l	soleus_l	tib_post_l	flex_dig_l	flex_hal_l	tib_ant_l	per_brev_l	per_long_l	per_tert_l	ext_dig_l	ext_hal_l	ercspn_r	ercspn_l	intobl_r	intobl_l	extobl_r	extobl_l	femur_lat_meniscii_l.femur_lat_l.force.X	femur_lat_meniscii_l.femur_lat_l.force.Y	femur_lat_meniscii_l.femur_lat_l.force.Z	femur_lat_meniscii_l.femur_lat_l.torque.X	femur_lat_meniscii_l.femur_lat_l.torque.Y	femur_lat_meniscii_l.femur_lat_l.torque.Z	femur_lat_meniscii_l.meniscus_lat_l.force.X	femur_lat_meniscii_l.meniscus_lat_l.force.Y	femur_lat_meniscii_l.meniscus_lat_l.force.Z	femur_lat_meniscii_l.meniscus_lat_l.torque.X	femur_lat_meniscii_l.meniscus_lat_l.torque.Y	femur_lat_meniscii_l.meniscus_lat_l.torque.Z	femur_med_meniscii_l.femur_med_l.force.X	femur_med_meniscii_l.femur_med_l.force.Y	femur_med_meniscii_l.femur_med_l.force.Z	femur_med_meniscii_l.femur_med_l.torque.X	femur_med_meniscii_l.femur_med_l.torque.Y	femur_med_meniscii_l.femur_med_l.torque.Z	femur_med_meniscii_l.meniscus_med_l.force.X	femur_med_meniscii_l.meniscus_med_l.force.Y	femur_med_meniscii_l.meniscus_med_l.force.Z	femur_med_meniscii_l.meniscus_med_l.torque.X	femur_med_meniscii_l.meniscus_med_l.torque.Y	femur_med_meniscii_l.meniscus_med_l.torque.Z	femur_lat_meniscii_r.femur_lat_r.force.X	femur_lat_meniscii_r.femur_lat_r.force.Y	femur_lat_meniscii_r.femur_lat_r.force.Z	femur_lat_meniscii_r.femur_lat_r.torque.X	femur_lat_meniscii_r.femur_lat_r.torque.Y	femur_lat_meniscii_r.femur_lat_r.torque.Z	femur_lat_meniscii_r.meniscus_lat_r.force.X	femur_lat_meniscii_r.meniscus_lat_r.force.Y	femur_lat_meniscii_r.meniscus_lat_r.force.Z	femur_lat_meniscii_r.meniscus_lat_r.torque.X	femur_lat_meniscii_r.meniscus_lat_r.torque.Y	femur_lat_meniscii_r.meniscus_lat_r.torque.Z	femur_med_meniscii_r.femur_med_r.force.X	femur_med_meniscii_r.femur_med_r.force.Y	femur_med_meniscii_r.femur_med_r.force.Z	femur_med_meniscii_r.femur_med_r.torque.X	femur_med_meniscii_r.femur_med_r.torque.Y	femur_med_meniscii_r.femur_med_r.torque.Z	femur_med_meniscii_r.meniscus_med_r.force.X	femur_med_meniscii_r.meniscus_med_r.force.Y	femur_med_meniscii_r.meniscus_med_r.force.Z	femur_med_meniscii_r.meniscus_med_r.torque.X	femur_med_meniscii_r.meniscus_med_r.torque.Y	femur_med_meniscii_r.meniscus_med_r.torque.Z	femur_med_tibia_l.tibia_upper_l.force.X	femur_med_tibia_l.tibia_upper_l.force.Y	femur_med_tibia_l.tibia_upper_l.force.Z	femur_med_tibia_l.tibia_upper_l.torque.X	femur_med_tibia_l.tibia_upper_l.torque.Y	femur_med_tibia_l.tibia_upper_l.torque.Z	femur_med_tibia_l.femur_med_l.force.X	femur_med_tibia_l.femur_med_l.force.Y	femur_med_tibia_l.femur_med_l.force.Z	femur_med_tibia_l.femur_med_l.torque.X	femur_med_tibia_l.femur_med_l.torque.Y	femur_med_tibia_l.femur_med_l.torque.Z	femur_lat_tibia_l.tibia_upper_l.force.X	femur_lat_tibia_l.tibia_upper_l.force.Y	femur_lat_tibia_l.tibia_upper_l.force.Z	femur_lat_tibia_l.tibia_upper_l.torque.X	femur_lat_tibia_l.tibia_upper_l.torque.Y	femur_lat_tibia_l.tibia_upper_l.torque.Z	femur_lat_tibia_l.femur_lat_l.force.X	femur_lat_tibia_l.femur_lat_l.force.Y	femur_lat_tibia_l.femur_lat_l.force.Z	femur_lat_tibia_l.femur_lat_l.torque.X	femur_lat_tibia_l.femur_lat_l.torque.Y	femur_lat_tibia_l.femur_lat_l.torque.Z	femur_med_tibia_r.tibia_upper_r.force.X	femur_med_tibia_r.tibia_upper_r.force.Y	femur_med_tibia_r.tibia_upper_r.force.Z	femur_med_tibia_r.tibia_upper_r.torque.X	femur_med_tibia_r.tibia_upper_r.torque.Y	femur_med_tibia_r.tibia_upper_r.torque.Z	femur_med_tibia_r.femur_med_r.force.X	femur_med_tibia_r.femur_med_r.force.Y	femur_med_tibia_r.femur_med_r.force.Z	femur_med_tibia_r.femur_med_r.torque.X	femur_med_tibia_r.femur_med_r.torque.Y	femur_med_tibia_r.femur_med_r.torque.Z	femur_lat_tibia_r.tibia_upper_r.force.X	femur_lat_tibia_r.tibia_upper_r.force.Y	femur_lat_tibia_r.tibia_upper_r.force.Z	femur_lat_tibia_r.tibia_upper_r.torque.X	femur_lat_tibia_r.tibia_upper_r.torque.Y	femur_lat_tibia_r.tibia_upper_r.torque.Z	femur_lat_tibia_r.femur_lat_r.force.X	femur_lat_tibia_r.femur_lat_r.force.Y	femur_lat_tibia_r.femur_lat_r.force.Z	femur_lat_tibia_r.femur_lat_r.torque.X	femur_lat_tibia_r.femur_lat_r.torque.Y	femur_lat_tibia_r.femur_lat_r.torque.Z	aACL_R	pACL_R	aPCL_R	pPCL_R	aMCL_R	mMCL_R	pMCL_R	aLCL_R	mLCL_R	pLCL_R	aPCL_L	pPCL_L	aMCL_L	aLCL_L
      0.04043524	      0.00000000	      0.00000000	      0.00000000	      7.23094969	      9.12731078	      0.00000000	      0.00000000	    274.03374686	    241.50129011	    454.18581475	    137.05323711	     20.06562492	     13.79402908	      0.00000000	      0.00000000	     10.54983194	      4.54336732	      0.00000000	    129.14041348	      0.00000000	      0.00000000	     13.51964633	     49.52433579	     43.56572563	      0.00000000	      7.31929739	      0.00000000	     40.56637998	      0.00000000	      0.00000000	      0.00000000	      0.00000000	      0.00000000	      0.00000000	     33.17476763	      0.00000000	      0.00000000	      0.00000000	     25.00078698	     51.03033663	      6.42900464	      8.79277305	      1.79077757	      0.00000000	      0.00000000	      0.00000000	      7.23094969	      9.12731078	      0.00000000	      0.00000000	     15.42199528	      0.00000000	     24.93264589	      5.08927307	     20.06562492	     13.79402908	      0.00000000	      0.00000000	     10.54983194	      8.79910064	      0.00000000	      5.32372255	      0.00000000	      0.00000000	     13.51964633	     49.52433579	     43.56572563	      0.00000000	      7.31929739	      0.00000000	     21.11715750	      0.00000000	      0.00000000	      0.00000000	      0.00000000	      0.00000000	      0.00000000	     54.63314591	      2.50395053	      0.00000000	      0.00000000	      3.02132127	     15.46644072	      5.02350437	      8.40433181	      3.32030026	     84.40216079	     84.40216079	     32.25627326	     32.25627326	     49.12756780	     49.12756780	      2.76307435	     50.99597937	     -9.56042239	      5.21997485	     -0.02578839	      1.48581788	     -2.76307435	    -50.99597937	      9.56042239	     -1.74637766	      0.02558040	     -0.48301696	     -3.31599387	     20.97615968	     -3.40468921	      0.94473225	     -0.02138609	     -1.00501789	      3.31599387	    -20.97615968	      3.40468921	      0.28075727	      0.00368718	     -0.29758878	     95.03564022	    172.23210213	     25.52456978	    -14.96767390	      2.43726724	     39.97690916	    -95.03564022	   -172.23210213	    -25.52456978	      5.80039944	     -2.84753094	     -3.07605701	      8.22515759	    143.22960982	     24.33569111	     -7.08809785	     -0.11555143	      3.68220990	     -8.22515759	   -143.22960982	    -24.33569111	     -1.72820109	      0.02289148	     -0.15705439	      0.00000000	      0.00000000	      0.00000000	      0.00000000	      0.00000000	      0.00000000	      0.00000000	      0.00000000	      0.00000000	      0.00000000	      0.00000000	      0.00000000	      0.00000000	      0.00000000	      0.00000000	      0.00000000	      0.00000000	      0.00000000	      0.00000000	      0.00000000	      0.00000000	      0.00000000	      0.00000000	      0.00000000	     59.33394076	   -709.93418679	     49.82479496	    -13.48444897	     -1.43817802	     -1.18293411	    -59.33394076	    709.93418679	    -49.82479496	     35.16964578	      1.78185368	    -19.74401780	    -41.52390223	   -238.35174988	    -61.26838245	      8.47435362	     -0.88992397	     -2.32262105	     41.52390223	    238.35174988	     61.26838245	    -31.11350548	      0.58121941	     18.86698146	     28.41544986	     32.48510288	      0.00000000	      0.00000000	      0.00000000	     -3.60964860	      8.98524805	      0.00000000	      0.00000000	      0.00000000	      0.00000000	      0.00000000	      0.00000001	      0.00000000
      0.04164336	      0.00000000	      0.00000000	      0.00000000	      7.98470232	      9.25425741	      0.00000000	      0.00000000	    273.74948241	    260.19348419	    454.41932668	    137.29392813	     19.82078115	     13.63438690	      0.00000000	      0.00000000	     10.77784789	      4.50035289	      0.00000000	    129.27362795	      0.00000000	      0.00000000	     13.50875571	     49.05870048	     43.03061105	      0.00000000	      7.24040427	      0.00000000	     44.57080691	      0.00000000	      0.00000000	      0.00000000	      0.00000000	      0.00000000	      0.00000000	     32.13513321	      0.00000000	      0.00000000	      0.00000000	     25.68606027	     55.18157937	      6.78150884	      8.73456984	      1.66865245	      0.00000000	      0.00000000	      0.00000000	      7.98470232	      9.25425741	      0.00000000	      0.00000000	     15.22686416	      0.00000000	     24.63651023	      5.03017391	     19.82078115	     13.63438690	      0.00000000	      0.00000000	     10.77784789	      8.79904544	      0.00000000	      5.26105444	      0.00000000	      0.00000000	     13.50875571	     49.05870048	     43.03061105	      0.00000000	      7.24040427	      0.00000000	     22.04589697	      0.00000000	      0.00000000	      0.00000000	      0.00000000	      0.00000000	      0.00000000	     55.11735369	      2.87807600	      0.00000000	      0.00000000	      3.73182297	     15.98735222	      5.13946268	      8.22154061	      3.14456546	     83.41649944	     83.41649944	     31.95220444	     31.95220444	     48.73682869	     48.73682869	      2.76307435	     50.99597937	     -9.56042239	      5.21997485	     -0.02578839	      1.48581788	     -2.76307435	    -50.99597937	      9.56042239	     -1.74637766	      0.02558040	     -0.48301696	     -3.31599387	     20.97615968	     -3.40468921	      0.94473225	     -0.02138609	     -1.00501789	      3.31599387	    -20.97615968	      3.40468921	      0.28075727	      0.00368718	     -0.29758878	    115.45096590	    174.50923122	     13.59391786	     -9.95698545	      2.90681300	     48.60161750	   -115.45096590	   -174.50923122	    -13.59391786	      5.37441792	     -3.36174560	     -3.84249859	     21.92910961	    140.65023005	     14.57617434	     -3.02374711	     -0.41170886	      9.41941559	    -21.92910961	   -140.65023005	    -14.57617434	     -2.05814084	      0.29261135	     -0.62476440	      0.00000000	      0.00000000	      0.00000000	      0.00000000	      0.00000000	      0.00000000	      0.00000000	      0.00000000	      0.00000000	      0.00000000	      0.00000000	      0.00000000	      0.00000000	      0.00000000	      0.00000000	      0.00000000	      0.00000000	      0.00000000	      0.00000000	      0.00000000	      0.00000000	      0.00000000	      0.00000000	      0.00000000	     12.67076246	   -687.77877614	     87.28769721	    -14.74040560	     -0.86271182	     -2.82321669	    -12.67076246	    687.77877614	    -87.28769721	     50.71084928	      1.14645050	     -0.16258211	    -65.90412742	   -268.05577314	    -54.56951796	      8.95275969	     -1.53486257	     -3.33456492	     65.90412742	    268.05577314	     54.56951796	    -28.91374436	      1.14760353	     29.34392604	     35.49790267	     39.39641647	      0.00000000	      0.00000000	      0.00000000	     -3.49518368	      8.29288092	      0.00000000	      0.00000000	      0.00000000	      0.00000000	      0.00000000	      0.00000001	      0.00000000
      0.04285149	      0.00000000	      0.00000000	      0.00000000	      8.27964986	      9.30664740	      0.00000000	      0.00000000	    273.49402506	    276.23908617	    453.31570416	    137.93651057	     19.58070749	     13.47754249	      0.00000000	      0.00000000	     10.96854145	      4.46071065	      0.00000000	    129.48465453	      0.00000000	      1.95884421	     13.48392714	     48.60252853	     42.50691716	      0.00000000	      7.16322048	      0.00000000	     48.71351609	      0.00000000	      0.00000000	      0.00000000	      0.00000000	      0.00000000	      0.00000000	     31.30286186	      0.00000000	      0.00000000	      0.00000000	     25.07266453	     56.34715855	      7.00827386	      8.64004685	      1.56403460	      0.00000000	      0.00000000	      0.00000000	      8.27964986	      9.30664740	      0.00000000	      0.00000000	     15.03582437	      0.00000000	     24.34571056	      4.97210436	     19.58070749	     13.47754249	      0.00000000	      0.00000000	     10.96854145	      8.79696898	      0.00000000	      5.19949614	      0.00000000	      1.95884421	     13.48392714	     48.60252853	     42.50691716	      0.00000000	      7.16322048	      0.00000000	     22.87921582	      0.00000000	      0.00000000	      0.00000000	      0.00000000	      0.00000000	      0.00000000	     55.56861945	      3.25528695	      0.04085877	      0.00000000	      4.37370098	     16.47563447	      5.22998833	      8.03494276	      2.97978616	     82.44816929	     82.44816929	     31.64327397	     31.64327397	     48.35420303	     48.35420303	      2.76307435	     50.99597937	     -9.56042239	      5.21997485	     -0.02578839	      1.48581788	     -2.76307435	    -50.99597937	      9.56042239	     -1.74637766	      0.02558040	     -0.48301696	     -3.31599387	     20.97615968	     -3.40468921	      0.94473225	     -0.02138609	     -1.00501789	      3.31599387	    -20.97615968	      3.40468921	      0.28075727	      0.00368718	     -0.29758878	    101.09625990	    185.13473217	     23.06075775	    -14.21351678	      2.57177771	     42.52471380	   -101.09625990	   -185.13473217	    -23.06075775	      6.04012962	     -3.00485452	     -3.21653314	     12.43977056	    141.08133169	     20.90834542	     -5.68884537	     -0.20713273	      5.35346594	    -12.43977056	   -141.08133169	    -20.90834542	     -1.81875341	      0.10175130	     -0.17562156	      0.00000000	      0.00000000	      0.00000000	      0.00000000	      0.00000000	      0.00000000	      0.00000000	      0.00000000	      0.00000000	      0.00000000	      0.00000000	      0.00000000	      0.00000000	      0.00000000	      0.00000000	      0.00000000	      0.00000000	      0.00000000	      0.00000000	      0.00000000	      0.00000000	      0.00000000	      0.00000000	      0.00000000	     52.72959543	   -682.56220255	     63.57993824	    -13.61401441	     -1.34799479	     -0.83535827	    -52.72959543	    682.56220255	    -63.57993824	     40.47463124	      1.72248503	    -17.42097548	    -51.19520170	   -291.71894755	    -69.23756369	     10.15351348	     -1.14754118	     -2.72960883	     51.19520170	    291.71894755	     69.23756369	    -35.65107004	      0.76230601	     23.20596405	     31.87617997	     35.13216910	      0.00000000	      0.00000000	      0.00000000	     -3.34388871	      7.10908743	      0.00000000	      0.00000000	      0.00000000	      0.00000000	      0.00000000	      0.00000001	      0.00000000
      0.04405961	      0.00000000	      0.00000000	      0.00000000	      8.36507568	      9.31042724	      0.00000000	      0.00000000	    272.86294122	    289.75372091	    453.11007413	    138.16747399	     19.34524345	     13.32344175	      0.00000000	      0.00000000	     11.12604742	      4.42841304	      0.00000000	    129.49229284	      0.00000000	      6.38407993	     13.44627246	     48.15548029	     41.99420793	      0.00000000	      7.08767916	      0.00000000	     52.26001462	      0.00000000	      0.00000000	      0.00000000	      0.00000000	      0.00000000	      0.00000000	     30.66621169	      0.00000000	      0.00000000	      0.00000000	     25.24984045	     56.32917893	      7.12353846	      8.52740652	      1.48080318	      0.00000000	      0.00000000	      0.00000000	      8.36507568	      9.31042724	      0.00000000	      0.00000000	     14.84871768	      0.00000000	     24.06012032	      4.91504743	     19.34524345	     13.32344175	      0.00000000	      0.00000000	     11.12604742	      8.79298832	      0.00000000	      5.13902460	      0.00000000	      6.38407993	     13.44627246	     48.15548029	     41.99420793	      0.00000000	      7.08767916	      0.00000000	     23.62542583	      0.00000000	      0.00000000	      0.00000000	      0.00000000	      0.00000000	      0.00000000	     55.98879105	      3.63543324	      0.53318114	      0.00000000	      4.95620100	     16.93352297	      5.29893076	      7.84699807	      2.82601666	     81.49683300	     81.49683300	     31.33070861	     31.33070861	     47.97939048	     47.97939048	      2.76307435	     50.99597937	     -9.56042239	      5.21997485	     -0.02578839	      1.48581788	     -2.76307435	    -50.99597937	      9.56042239	     -1.74637766	      0.02558040	     -0.48301696	     -3.31599387	     20.97615968	     -3.40468921	      0.94473225	     -0.02138609	     -1.00501789	      3.31599387	    -20.97615968	      3.40468921	      0.28075727	      0.00368718	     -0.29758878	    113.48602748	    190.54980407	     14.43408347	    -10.68910628	      2.86202186	     47.76098051	   -113.48602748	   -190.54980407	    -14.43408347	      5.84447252	     -3.31730301	     -3.66036452	     18.71625309	    136.44638873	     14.32081294	     -3.00909036	     -0.34035184	      7.95906626	    -18.71625309	   -136.44638873	    -14.32081294	     -1.98829451	      0.22907113	     -0.36758583	      0.00000000	      0.00000000	      0.00000000	      0.00000000	      0.00000000	      0.00000000	      0.00000000	      0.00000000	      0.00000000	      0.00000000	      0.00000000	      0.00000000	      0.00000000	      0.00000000	      0.00000000	      0.00000000	      0.00000000	      0.00000000	      0.00000000	      0.00000000	      0.00000000	      0.00000000	      0.00000000	      0.00000000	     29.26231416	   -660.98246507	     85.83956314	    -14.22188831	     -1.03987603	     -1.50563902	    -29.26231416	    660.98246507	    -85.83956314	     49.53907013	      1.40619687	     -7.71308008	    -67.03126501	   -318.92958385	    -64.50357262	     10.65160325	     -1.57365051	     -3.36279992	     67.03126501	    318.92958385	     64.50357262	    -34.23283809	      1.13504739	     30.03672574	     36.18616659	     39.16108307	      0.00000000	      0.00000000	      0.00000000	     -3.75041225	      5.71779501	      0.00000000	      0.00000000	      0.00000000	      0.00000000	      0.00000000	      0.00000001	      0.00000000
